<?xml version="1.0" encoding="UTF-8" standalone="no"?>
<svg width="917px" height="401px" viewBox="0 0 917 401" version="1.1" xmlns="http://www.w3.org/2000/svg" xmlns:xlink="http://www.w3.org/1999/xlink">
    <!-- Generator: Sketch 45.2 (43514) - http://www.bohemiancoding.com/sketch -->
    <title>BMM_LOGO_17</title>
    <desc>Created with Sketch.</desc>
    <defs></defs>
    <g id="Page-1" stroke="none" stroke-width="1" fill="none" fill-rule="evenodd">
        <g id="BMM_LOGO_17" fill="#000000">
            <path d="M0.62,1.3 L45.7,1.3 C67.26,1.3 80.7,10.68 80.7,25.8 C80.7,36.44 74.26,44.7 63.76,47.36 C76.36,49.74 84.2,59.26 84.2,72.14 C84.2,88.94 70.06,99.3 47.24,99.3 L0.62,99.3 L0.62,1.3 Z M23.9,19.06 L23.9,40.48 L45.74,40.48 C54,40.48 59.18,36.42 59.18,29.56 C59.18,22.84 54,19.06 45.74,19.06 L23.9,19.06 Z M23.9,57.56 L23.9,80.94 L45.74,80.94 C56.24,80.94 62.54,76.6 62.54,69.04 C62.54,61.9 56.24,57.56 45.74,57.56 L23.9,57.56 Z M124.779333,79.68 L124.779333,1 L102.659333,1 L102.659333,99 L166.779333,99 L166.779333,79.68 L124.779333,79.68 Z M226.778667,0.3 C256.738667,0.3 279.418667,21.58 279.418667,50 C279.418667,78.28 256.738667,99.98 226.778667,99.98 C196.818667,99.98 174.138667,78.42 174.138667,50 C174.138667,21.44 196.818667,0.3 226.778667,0.3 Z M227.058667,19.62 C210.538667,19.62 196.818667,32.78 196.818667,50 C196.818667,67.22 210.678667,80.66 227.058667,80.66 C243.438667,80.66 256.738667,67.22 256.738667,50 C256.738667,32.78 243.438667,19.62 227.058667,19.62 Z M338.298,0.3 C368.258,0.3 390.938,21.58 390.938,50 C390.938,78.28 368.258,99.98 338.298,99.98 C308.338,99.98 285.658,78.42 285.658,50 C285.658,21.44 308.338,0.3 338.298,0.3 Z M338.578,19.62 C322.058,19.62 308.338,32.78 308.338,50 C308.338,67.22 322.198,80.66 338.578,80.66 C354.958,80.66 368.258,67.22 368.258,50 C368.258,32.78 354.958,19.62 338.578,19.62 Z M406.697333,1 L448.277333,1 C478.657333,1 499.797333,21.02 499.797333,50 C499.797333,78.84 478.377333,99 447.437333,99 L406.697333,99 L406.697333,1 Z M428.817333,19.62 L428.817333,80.38 L448.837333,80.38 C465.217333,80.38 477.257333,68.06 477.257333,50.14 C477.257333,32.08 464.657333,19.62 447.857333,19.62 L428.817333,19.62 Z M562.456667,67.36 L598.156667,1 L575.896667,1 L551.396667,44.96 L526.336667,1 L504.076667,1 L540.336667,67.92 L540.336667,99 L562.456667,99 L562.456667,67.36 Z M215.158667,249 L215.158667,151 L190.518667,151 L162.098667,210.92 L133.538667,151 L108.758667,151 L108.758667,249 L128.778667,249 L128.778667,182.92 L154.818667,239.06 L169.238667,239.06 L195.278667,182.92 L195.278667,249 L215.158667,249 Z M302.738,229.96 L257.378,229.96 L249.678,249 L226.858,249 L269.418,151 L292.238,151 L334.098,249 L310.438,249 L302.738,229.96 Z M295.598,212.18 L280.198,174.1 L264.658,212.18 L295.598,212.18 Z M405.717333,249 L390.177333,221 L367.637333,221 L367.637333,249 L345.517333,249 L345.517333,151 L388.077333,151 C413.697333,151 428.257333,163.32 428.257333,185.02 C428.257333,200.14 421.817333,211.06 409.917333,216.66 L430.777333,249 L405.717333,249 Z M367.637333,202.52 L388.077333,202.52 C400.257333,202.52 407.257333,196.92 407.257333,185.72 C407.257333,174.8 400.257333,169.34 388.077333,169.34 L367.637333,169.34 L367.637333,202.52 Z M494.276667,217.36 L529.976667,151 L507.716667,151 L483.216667,194.96 L458.156667,151 L435.896667,151 L472.156667,217.92 L472.156667,249 L494.276667,249 L494.276667,217.36 Z M107.02,400.3 L107.02,302.3 L82.38,302.3 L53.96,362.22 L25.4,302.3 L0.62,302.3 L0.62,400.3 L20.64,400.3 L20.64,334.22 L46.68,390.36 L61.1,390.36 L87.14,334.22 L87.14,400.3 L107.02,400.3 Z M205.24,320.64 L205.24,302.3 L130.62,302.3 L130.62,400.3 L206.78,400.3 L206.78,381.96 L152.74,381.96 L152.74,360.26 L200.06,360.26 L200.06,341.92 L152.74,341.92 L152.74,320.64 L205.24,320.64 Z M247.078603,380.68 L247.078603,302 L225,302 L225,400 L289,400 L289,380.68 L247.078603,380.68 Z M304.62,302.3 L349.7,302.3 C371.26,302.3 384.7,311.68 384.7,326.8 C384.7,337.44 378.26,345.7 367.76,348.36 C380.36,350.74 388.2,360.26 388.2,373.14 C388.2,389.94 374.06,400.3 351.24,400.3 L304.62,400.3 L304.62,302.3 Z M326.398,319.06 L326.398,340.48 L348.238,340.48 C356.498,340.48 361.678,336.42 361.678,329.56 C361.678,322.84 356.498,319.06 348.238,319.06 L326.398,319.06 Z M326.398,357.56 L326.398,380.94 L348.238,380.94 C358.738,380.94 365.038,376.6 365.038,369.04 C365.038,361.9 358.738,357.56 348.238,357.56 L326.398,357.56 Z M451.26,300.3 C481.22,300.3 503.9,321.58 503.9,350 C503.9,378.28 481.22,399.98 451.26,399.98 C421.3,399.98 398.62,378.42 398.62,350 C398.62,321.44 421.3,300.3 451.26,300.3 Z M451.077333,319.62 C434.557333,319.62 420.837333,332.78 420.837333,350 C420.837333,367.22 434.697333,380.66 451.077333,380.66 C467.457333,380.66 480.757333,367.22 480.757333,350 C480.757333,332.78 467.457333,319.62 451.077333,319.62 Z M606.1,301.3 L583.98,301.3 L583.98,358.28 C583.98,372.42 575.3,380.96 562.14,380.96 C548.98,380.96 539.74,372.42 539.74,358.28 L539.74,301.3 L517.62,301.3 L517.62,358.28 C517.62,384.18 534.98,400.28 562.14,400.28 C589.16,400.28 606.1,384.18 606.1,358.28 L606.1,301.3 Z M686.82,400.3 L671.28,372.3 L648.74,372.3 L648.74,400.3 L626.62,400.3 L626.62,302.3 L669.18,302.3 C694.8,302.3 709.36,314.62 709.36,336.32 C709.36,351.44 702.92,362.36 691.02,367.96 L711.88,400.3 L686.82,400.3 Z M648.916,352.52 L669.356,352.52 C681.536,352.52 688.536,346.92 688.536,335.72 C688.536,324.8 681.536,319.34 669.356,319.34 L648.916,319.34 L648.916,352.52 Z M818.38,400.3 L818.38,302.3 L797.38,302.3 L797.38,365.3 L749.78,302.3 L729.62,302.3 L729.62,400.3 L750.76,400.3 L750.76,337.44 L798.22,400.3 L818.38,400.3 Z M915.240004,320.64 L915.240004,302.3 L840.62,302.3 L840.62,400.3 L916.780004,400.3 L916.780004,381.96 L862.740004,381.96 L862.740004,360.26 L910.060004,360.26 L910.060004,341.92 L862.740004,341.92 L862.740004,320.64 L915.240004,320.64 Z" id="BLOODY-+-MARY-MELBOU" fill-rule="nonzero"></path>
            <path d="M43,192 L43,165 L26,165 L26,192 L0,192 L0,209 L26,209 L26,235 L43,235 L43,209 L70,209 L70,192 L43,192 Z" id="Combined-Shape"></path>
        </g>
    </g>
</svg>